<svg xmlns="http://www.w3.org/2000/svg" width="860" height="360" viewBox="0 0 860 360"> <style> .axis{stroke:#111;stroke-width:1} .grid{stroke:#eee;stroke-width:1} .opt{fill:rgba(76,120,168,0.18);stroke:#4c78a8;stroke-width:1.2} .path{stroke:#d62728;stroke-width:2;fill:none} .lbl{font-family:Helvetica,Arial,sans-serif;font-size:13px;fill:#111} .title{font-family:Helvetica,Arial,sans-serif;font-weight:bold;font-size:16px;fill:#111} .sub{font-family:Helvetica,Arial,sans-serif;font-size:12px;fill:#444} </style> <text x="20" y="24" class="title">Sleep Quality vs Coupling Strength and Phase Error</text> <line x1="80" y1="300" x2="780" y2="300" class="axis"/> <line x1="80" y1="60" x2="80" y2="300" class="axis"/> <g> <line x1="80" y1="260" x2="780" y2="260" class="grid"/> <line x1="80" y1="220" x2="780" y2="220" class="grid"/> <line x1="80" y1="180" x2="780" y2="180" class="grid"/> <line x1="80" y1="140" x2="780" y2="140" class="grid"/> <line x1="80" y1="100" x2="780" y2="100" class="grid"/> </g> <!-- Optimal zone --> <path class="opt" d="M180 240 C 240 180, 340 140, 430 140 C 520 140, 620 180, 680 240 L 180 240 Z"/> <text x="430" y="130" text-anchor="middle" class="sub">High Sleep Quality (Eq. 21)</text> <!-- Patient trajectory --> <path class="path" d="M120 260 C 220 250, 300 230, 360 200 C 420 180, 520 220, 700 280"/> <text x="560" y="210" class="lbl">Disruption increases as K deviates and |Δφ| grows (Eq. 23)</text>
    <text x="20" y="60" transform="rotate(-90,20,60)" class="lbl">Sleep Quality</text>
    <text x="430" y="335" class="lbl">Coupling Deviation and Phase Error</text>
    </svg>