<svg xmlns="http://www.w3.org/2000/svg" width="900" height="300" viewBox="0 0 900 300"> <style> .box{fill:#fff;stroke:#111;stroke-width:1.2} .arrow{stroke:#555;stroke-width:1.2;fill:none;marker-end:url(#arr)} .lbl{font-family:Helvetica,Arial,sans-serif;font-size:14px;fill:#111} .sub{font-family:Helvetica,Arial,sans-serif;font-size:12px;fill:#444} .title{font-family:Helvetica,Arial,sans-serif;font-weight:bold;font-size:16px;fill:#111} </style> <defs> <marker id="arr" viewBox="0 0 10 10" refX="9" refY="5" markerWidth="6" markerHeight="6" orient="auto"> <path d="M 0 0 L 10 5 L 0 10 z" fill="#555"/> </marker> </defs> <text x="20" y="26" class="title">Molecular TTFL with Cellular Modulation</text> <rect class="box" x="80" y="90" width="160" height="60" rx="8"/> <text x="160" y="115" text-anchor="middle" class="lbl">CLOCK</text> <rect class="box" x="320" y="60" width="160" height="60" rx="8"/> <text x="400" y="85" text-anchor="middle" class="lbl">PER</text> <rect class="box" x="320" y="160" width="160" height="60" rx="8"/> <text x="400" y="185" text-anchor="middle" class="lbl">CRY</text> <path class="arrow" d="M240 120 L320 90"/> <path class="arrow" d="M240 120 L320 190"/> <path class="arrow" d="M480 90 C 520 100, 520 150, 480 170 L 240 120"/> <rect class="box" x="620" y="90" width="200" height="60" rx="8"/> <text x="720" y="113" text-anchor="middle" class="lbl">Cellular Modulation</text> <text x="720" y="131" text-anchor="middle" class="sub">α12 sin(ω2 t + φ12)</text> <path class="arrow" d="M820 120 C 780 60, 520 40, 240 120"/> <text x="460" y="40" class="sub" text-anchor="middle">Eq. (4–6)</text> </svg>