<svg xmlns="http://www.w3.org/2000/svg" width="900" height="420" viewBox="0 0 900 420"> <style> .node{fill:#fff;stroke:#111;stroke-width:1.2} .arrow{stroke:#555;stroke-width:1.2;fill:none;marker-end:url(#arr)} .lbl{font-family:Helvetica,Arial,sans-serif;font-size:13px;fill:#111} .sub{font-family:Helvetica,Arial,sans-serif;font-size:12px;fill:#444} .title{font-family:Helvetica,Arial,sans-serif;font-weight:bold;font-size:16px;fill:#111} .light{stroke-dasharray:4 3} </style> <defs> <marker id="arr" viewBox="0 0 10 10" refX="9" refY="5" markerWidth="6" markerHeight="6" orient="auto"> <path d="M 0 0 L 10 5 L 0 10 z" fill="#555"/> </marker> </defs> <text x="20" y="26" class="title">SCN Network and Peripheral Entrainment</text> <!-- SCN cluster --> <rect class="node" x="110" y="120" width="150" height="60" rx="8"/> <text x="185" y="145" text-anchor="middle" class="lbl">SCN Network</text> <text x="185" y="163" text-anchor="middle" class="sub">K_SCN, F_light(t)</text> <!-- Light input --> <rect class="node" x="40" y="40" width="120" height="40" rx="6"/> <text x="100" y="65" text-anchor="middle" class="lbl">Light I(t)</text> <path class="arrow light" d="M100 80 L140 120"/> <text x="100" y="32" class="sub" text-anchor="middle">Eq. (16)</text> <!-- Peripheral nodes --> <rect class="node" x="390" y="80" width="160" height="60" rx="8"/> <text x="470" y="105" text-anchor="middle" class="lbl">Liver Clock</text> <text x="470" y="123" text-anchor="middle" class="sub">F_feeding(t)</text> <rect class="node" x="390" y="190" width="160" height="60" rx="8"/> <text x="470" y="215" text-anchor="middle" class="lbl">Muscle Clock</text> <text x="470" y="233" text-anchor="middle" class="sub">F_exercise(t)</text> <!-- SCN to peripherals --> <path class="arrow" d="M260 150 L390 110"/> <path class="arrow" d="M260 150 L390 220"/> <!-- Social/temperature --> <rect class="node" x="600" y="40" width="220" height="50" rx="6"/> <text x="710" y="65" text-anchor="middle" class="lbl">Social/Temperature Cues</text> <text x="710" y="28" text-anchor="middle" class="sub">Eqs. (17–18)</text> <path class="arrow" d="M760 90 L740 105"/> <path class="arrow" d="M640 90 L620 205"/>
<text x="450" y="350" text-anchor="middle" class="sub">dφi/dt = ωi + (K/N) Σ sin(φj−φi) + inputs</text>
</svg>