<svg xmlns="http://www.w3.org/2000/svg" width="1200" height="520" viewBox="0 0 1200 520"> <defs> <style> .title{font:700 20px sans-serif; fill:#111} .label{font:16px sans-serif; fill:#111} .small{font:12px sans-serif; fill:#111} .box{fill:#fff;stroke:#111;stroke-width:2} .arrow{stroke:#111;stroke-width:2;marker-end:url(#a)} .dashed{stroke-dasharray:6 6} .wave{fill:none;stroke:#111;stroke-width:2} </style> <marker id="a" markerWidth="10" markerHeight="10" refX="9" refY="3" orient="auto"> <path d="M0,0 L10,3 L0,6 Z" fill="#111"/> </marker> </defs>
    <text x="600" y="30" text-anchor="middle" class="title">Heart Rate Analysis: Multi-Sensor Fusion and Contextual Interpretation</text>
    
    <!-- Sensors --> <rect x="60" y="90" width="220" height="70" rx="8" class="box"/> <text x="170" y="125" text-anchor="middle" class="label">PPG</text> <path d="M80,150 c15,-6 30,6 45,0 15,-6 30,6 45,0" class="wave"/> <rect x="60" y="190" width="220" height="70" rx="8" class="box"/> <text x="170" y="225" text-anchor="middle" class="label">Accelerometer</text> <path d="M80,250 c20,-3 40,3 60,0 20,-3 40,3 60,0" class="wave"/> <rect x="60" y="290" width="220" height="70" rx="8" class="box"/> <text x="170" y="325" text-anchor="middle" class="label">Temperature</text> <path d="M80,350 c24,-2 48,2 72,0 24,-2 48,2 72,0" class="wave"/> <!-- Fusion --> <rect x="340" y="170" width="220" height="90" rx="8" class="box"/> <text x="450" y="210" text-anchor="middle" class="label">Multi-Scale Fusion</text> <text x="450" y="233" text-anchor="middle" class="small">A_i, ω_i, φ_i coupling</text> <line x1="280" y1="125" x2="340" y2="190" class="arrow"/> <line x1="280" y1="225" x2="340" y2="215" class="arrow"/> <line x1="280" y1="325" x2="340" y2="230" class="arrow"/> <!-- Context block --> <rect x="340" y="290" width="220" height="120" rx="8" class="box"/> <text x="450" y="320" text-anchor="middle" class="label">Context</text> <text x="450" y="342" text-anchor="middle" class="small">sleep phase, ambient temp,</text> <text x="450" y="360" text-anchor="middle" class="small">movement history</text> <!-- S-entropy navigation --> <rect x="620" y="200" width="240" height="90" rx="8" class="box"/> <text x="740" y="238" text-anchor="middle" class="label">S-Entropy Navigation</text> <text x="740" y="260" text-anchor="middle" class="small">argmin_r S(r_current, r)</text> <line x1="560" y1="215" x2="620" y2="235" class="arrow"/> <line x1="560" y1="330" x2="620" y2="255" class="arrow dashed"/> <!-- Interpretation --> <rect x="900" y="190" width="240" height="110" rx="8" class="box"/> <text x="1020" y="225" text-anchor="middle" class="label">Contextual Interpretation</text> <text x="1020" y="250" text-anchor="middle" class="small">"Elevated metabolic clearance</text> <text x="1020" y="268" text-anchor="middle" class="small">during thermal stress"</text> <line x1="860" y1="245" x2="900" y2="245" class="arrow"/> <!-- Anomaly badge --> <rect x="900" y="330" width="240" height="70" rx="8" class="box"/> <text x="1020" y="365" text-anchor="middle" class="label">Anomaly: 190 bpm (sleep)</text> </svg>