<svg xmlns="http://www.w3.org/2000/svg" width="1100" height="460" viewBox="0 0 1100 460"> <defs> <style> .title{font:700 20px sans-serif; fill:#111} .label{font:14px sans-serif; fill:#111} .small{font:12px sans-serif; fill:#111} .box{fill:#fff;stroke:#111;stroke-width:2} .axis{stroke:#111;stroke-width:2} .bar{fill:#fff;stroke:#111;stroke-width:2} .arrow{stroke:#111;stroke-width:2;marker-end:url(#a)} .dashed{stroke-dasharray:6 6} </style> <marker id="a" markerWidth="10" markerHeight="10" refX="9" refY="3" orient="auto"> <path d="M0,0 L10,3 L0,6 Z" fill="#111"/> </marker> </defs> <text x="550" y="30" text-anchor="middle" class="title">Sleep Cleanup Efficiency</text> <!-- Stage boxes --> <rect x="60" y="90" width="220" height="80" rx="8" class="box"/> <text x="170" y="122" text-anchor="middle" class="label">Deep Sleep</text> <text x="170" y="142" text-anchor="middle" class="small">β_deep · T_deep · η</text> <rect x="60" y="190" width="220" height="80" rx="8" class="box"/> <text x="170" y="222" text-anchor="middle" class="label">REM Sleep</text> <text x="170" y="242" text-anchor="middle" class="small">β_REM · T_REM · η</text> <!-- Sum --> <rect x="340" y="140" width="240" height="90" rx="8" class="box"/> <text x="460" y="180" text-anchor="middle" class="label">C_total = C_deep + C_REM</text> <line x1="280" y1="130" x2="340" y2="175" class="arrow"/> <line x1="280" y1="230" x2="340" y2="195" class="arrow"/> <!-- Conceptual comparison bars --> <line x1="660" y1="340" x2="1000" y2="340" class="axis"/> <line x1="660" y1="120" x2="660" y2="340" class="axis"/> <text x="650" y="120" class="small" transform="rotate(-90,650,120)">Cleanup Capacity</text> <rect x="720" y="240" width="60" height="100" class="bar"/> <text x="750" y="360" text-anchor="middle" class="small">REM</text> <rect x="820" y="180" width="60" height="160" class="bar"/> <text x="850" y="360" text-anchor="middle" class="small">Deep</text> <rect x="920" y="160" width="60" height="180" class="bar"/> <text x="950" y="360" text-anchor="middle" class="small">Total</text>
<text x="840" y="100" text-anchor="middle" class="small">Deep ~68% of total cleanup</text>
</svg>